<?xml version="1.0" encoding="iso-8859-1"?>
<!-- Uploaded to: SVG Repo, www.svgrepo.com, Generator: SVG Repo Mixer Tools -->
<svg height="800px" width="800px" version="1.1" id="Layer_1" xmlns="http://www.w3.org/2000/svg" xmlns:xlink="http://www.w3.org/1999/xlink" 
	 viewBox="0 0 512.001 512.001" xml:space="preserve">
<path style="fill:#D7DEED;" d="M159.006,311.046l-50.047,16.014c-33.524,10.727-52.953,48.303-52.953,83.503v69.436
	c0,13.254,10.745,23.999,23.999,23.999h351.983c13.255,0,23.999-10.745,23.999-23.999v-69.436c0-35.199-19.429-72.776-52.953-83.503
	l-50.047-16.014H159.006z"/>
<g>
	<path style="fill:#C3CCE0;" d="M56.006,410.562v69.435c0,13.255,10.745,24,23.999,24h7.999V338.49
		C67.486,355.084,56.006,383.519,56.006,410.562z"/>
	<path style="fill:#C3CCE0;" d="M423.988,338.49v165.506h8c13.254,0,23.999-10.745,23.999-24v-69.435
		C455.987,383.519,444.507,355.084,423.988,338.49z"/>
</g>
<g>
	<path style="fill:#5B5D6E;" d="M108.959,327.06c-7.767,2.486-14.767,6.426-20.955,11.431v167.522h89.676l-66.364-179.707
		L108.959,327.06z"/>
	<path style="fill:#5B5D6E;" d="M403.034,327.06l-1.658-0.53l-67.044,179.483h89.657V338.49
		C417.801,333.487,410.802,329.546,403.034,327.06z"/>
</g>
<polygon style="fill:#D29B6E;" points="319.994,304.007 319.994,280.008 191.999,280.008 191.999,304.007 253.007,342.014 "/>
<path style="fill:#F0C087;" d="M360.069,154.783c0-145.923-224.067-107.215-224.067-74.766c0,39.999,16.174,87.996,16.174,87.996
	v15.999c0,61.852,46.538,111.995,103.947,111.995S360.07,245.866,360.07,184.014L360.069,154.783L360.069,154.783z"/>
<path style="fill:#E6AF78;" d="M273.049,269.021c-57.408,0-103.947-50.141-103.947-111.995v-15.999c0,0-13.428-39.85-15.812-77.189
	c-10.785,4.947-17.288,10.654-17.288,16.18c0,39.999,16.174,87.996,16.174,87.996v15.999c0,61.852,46.538,111.995,103.947,111.995
	c41.29,0,76.955-25.938,93.73-63.517C330.842,254.936,303.473,269.021,273.049,269.021z"/>
<path style="fill:#5A4146;" d="M213.56,28.322c-6.636-2.771-13.92-4.303-21.561-4.303c-30.927,0-55.997,25.071-55.997,55.997
	c0,25.239,15.016,87.996,15.016,79.014c0-8.982,16.636-29.636,26.997-39.996C188.376,108.675,176,88.017,176,88.017
	c79.996,61.997,159.992,31.999,159.992,31.999l24.077,34.768C381.49,96.017,377.991,36.02,367.991,24.02
	c-51.331,10-123.244-40.498-167.992,0"/>
<g>
	<polygon style="fill:#E4EAF6;" points="255.996,344.006 176,296.007 160.001,320.006 176,340.032 232.009,360.012 	"/>
	<polyline style="fill:#E4EAF6;" points="253.007,342.014 278.005,360.012 340.02,340.032 351.992,320.006 335.993,296.007 
		255.996,344.006 	"/>
</g>
<path style="fill:#65687A;" d="M279.996,383.909c0,8.8-7.199,15.999-15.998,15.999h-15.999c-8.8,0-15.999-7.199-15.999-15.999
	v-15.999c0-8.799,7.199-15.998,15.999-15.998h15.999c8.799,0,15.998,7.199,15.998,15.998V383.909z"/>
<g>
	<path style="fill:#5B5D6E;" d="M231.997,391.909l-51.403,19.275c-6.093,2.285-12.594-2.219-12.594-8.728V349.36
		c0-6.508,6.5-11.013,12.594-8.728l51.403,19.276V391.909z"/>
	<path style="fill:#5B5D6E;" d="M279.996,391.909l51.404,19.275c6.093,2.285,12.594-2.219,12.594-8.728V349.36
		c0-6.508-6.5-11.013-12.594-8.728l-51.404,19.276V391.909z"/>
</g>
<g>
	<path style="fill:#2D2B29;" d="M448.949,355.528c-10.725-17.939-25.758-30.419-43.476-36.087l-50.047-16.014
		c-1.647-0.527-3.337-0.485-4.868,0.006l-7.908-11.863c-2.369-3.554-7.11-4.619-10.771-2.423l-3.885,2.331v-11.471
		c0-1.213-0.278-2.357-0.76-3.387c24.922-22.027,40.836-55.362,40.836-92.609v-27.842c20.04-56.01,19.816-120.467,6.163-137.15
		c-0.03-0.037-0.058-0.076-0.089-0.113c-0.002-0.003-0.004-0.005-0.006-0.008c-0.022-0.027-0.048-0.05-0.07-0.076
		c-0.146-0.17-0.295-0.336-0.454-0.492c-0.097-0.096-0.199-0.182-0.3-0.271c-0.09-0.08-0.177-0.164-0.271-0.24
		c-0.134-0.109-0.273-0.207-0.412-0.307c-0.068-0.049-0.135-0.102-0.205-0.147c-0.15-0.101-0.305-0.19-0.46-0.28
		c-0.068-0.038-0.134-0.08-0.203-0.117c-0.15-0.08-0.304-0.151-0.458-0.221c-0.083-0.039-0.166-0.08-0.25-0.115
		c-0.14-0.057-0.281-0.105-0.422-0.155c-0.106-0.037-0.212-0.076-0.32-0.109c-0.125-0.038-0.25-0.067-0.376-0.099
		c-0.128-0.033-0.256-0.066-0.387-0.093c-0.114-0.022-0.229-0.037-0.344-0.055c-0.142-0.022-0.282-0.046-0.426-0.06
		c-0.12-0.012-0.241-0.016-0.362-0.021c-0.136-0.007-0.271-0.018-0.407-0.018c-0.156,0-0.312,0.01-0.467,0.02
		c-0.102,0.006-0.203,0.006-0.305,0.016c-0.238,0.022-0.475,0.058-0.711,0.102c-0.021,0.004-0.042,0.005-0.063,0.009
		c-0.012,0.002-0.023,0.003-0.035,0.006c-0.003,0.001-0.007,0.001-0.011,0.001c-18.67,3.623-40.901-1.609-64.436-7.148
		c-37.067-8.725-75.363-17.722-105.171,7.19c-1.595-0.118-3.197-0.196-4.811-0.196c-35.288,0-63.997,28.709-63.997,63.997
		c0,37.669,13.541,81.175,16.174,89.28v14.716c0,37.158,15.839,70.424,40.66,92.451c-0.531,1.069-0.836,2.271-0.836,3.545v11.471
		l-3.885-2.331c-3.66-2.196-8.402-1.13-10.771,2.423l-7.907,11.86c-1.531-0.49-3.222-0.531-4.87-0.003l-50.047,16.014
		c-17.717,5.668-32.752,18.147-43.476,36.087c-9.697,16.222-15.039,35.767-15.039,55.034v69.436
		c0,17.644,14.355,31.998,31.998,31.998h95.97c0.008,0,0.017,0.002,0.025,0.002c0.015,0,0.03-0.002,0.045-0.002h159.901
		c0.015,0,0.03,0.002,0.045,0.002c0.009,0,0.017-0.002,0.025-0.002h95.97c17.644,0,31.998-14.354,31.998-31.998v-69.436
		C463.986,391.296,458.646,371.751,448.949,355.528z M181.603,495.998l-59.865-164.63l30.434-9.738
		c0.25,1.205,0.775,2.361,1.58,3.368l10.443,13.072c-2.671,3.106-4.193,7.1-4.193,11.291v53.097c0,5.679,2.788,11.001,7.455,14.236
		c2.938,2.036,6.388,3.084,9.867,3.084c2.049,0,4.109-0.363,6.079-1.104l47.591-17.846c4.349,4.37,10.364,7.079,17.002,7.079h15.999
		c6.637,0,12.653-2.71,17.002-7.079l47.59,17.846c1.971,0.739,4.031,1.104,6.08,1.104c3.479,0,6.928-1.048,9.866-3.084
		c4.669-3.234,7.456-8.557,7.456-14.236v-53.097c0-3.327-0.962-6.526-2.693-9.261l9.56-15.989c0.467-0.781,0.771-1.623,0.949-2.484
		l30.448,9.742l-59.866,164.63H181.603z M95.861,342.524c3.319-2.372,6.894-4.4,10.716-6.031l58.003,159.506H96.004V344.005
		C96.004,343.498,95.951,343.004,95.861,342.524z M223.998,367.909v0.095h-15.999c-4.418,0-7.999,3.582-7.999,7.999
		c0,4.418,3.582,7.999,7.999,7.999h15.999v2.363l-46.213,17.329c-0.43,0.161-0.839,0.11-1.216-0.151
		c-0.377-0.261-0.569-0.627-0.569-1.086v-53.097c0-0.459,0.191-0.825,0.569-1.087c0.234-0.162,0.48-0.243,0.736-0.243
		c0.157,0,0.318,0.031,0.481,0.092l46.212,17.33V367.909z M247.997,359.909h15.999c4.412,0,7.999,3.589,7.999,8v15.999
		c0,4.412-3.589,8-7.999,8h-15.999c-4.412,0-8-3.589-8-8v-15.999C239.997,363.498,243.586,359.909,247.997,359.909z
		 M334.208,348.123c0.431-0.159,0.84-0.11,1.217,0.151c0.377,0.262,0.569,0.628,0.569,1.087v53.097c0,0.459-0.191,0.824-0.569,1.086
		s-0.788,0.313-1.217,0.151l-46.213-17.329v-2.363h15.999c4.418,0,7.999-3.582,7.999-7.999c0-4.418-3.582-7.999-7.999-7.999h-15.999
		v-0.095v-2.456L334.208,348.123z M405.416,336.491c3.822,1.632,7.396,3.66,10.716,6.031c-0.09,0.48-0.143,0.975-0.143,1.481
		v151.994h-68.576L405.416,336.491z M333.567,306.79l8.965,13.448l-7.071,11.829c-2.309-0.106-4.646,0.242-6.872,1.077
		l-47.591,17.847c-2.922-2.936-6.596-5.117-10.706-6.235L333.567,306.79z M160.175,184.013v-8c0-28.294,20.237-50.308,20.429-50.513
		c3.029-3.217,2.877-8.278-0.339-11.308c-3.215-3.03-8.278-2.878-11.308,0.338c-0.609,0.646-9.473,10.216-16.428,25.314
		c-4.144-16.888-8.528-39.55-8.528-59.828c0-26.466,21.532-47.998,47.998-47.998c6.405,0,12.624,1.239,18.479,3.685
		c4.077,1.699,8.761-0.225,10.463-4.301c1.521-3.644,0.14-7.765-3.08-9.816c22.442-10.631,50.756-3.978,80.451,3.013
		c18.351,4.32,37.175,8.751,54.832,8.751c3.563,0,7.069-0.206,10.523-0.604c2.284,6.236,4.602,19.283,4.146,38.932
		c-0.496,21.37-4.119,44.059-10.337,65.315l-14.911-21.532c-2.087-3.014-5.955-4.225-9.385-2.936
		c-0.758,0.284-76.691,27.753-152.284-30.831c-3.493-2.707-8.517-2.069-11.223,1.423c-2.707,3.492-2.07,8.517,1.423,11.223
		c43.087,33.393,86.225,40.685,114.828,40.924c21.669,0.213,38.403-3.5,46.837-5.857l19.304,27.877v26.729
		c0,57.343-43.042,103.996-95.947,103.996S160.175,241.356,160.175,184.013z M199.999,287.803
		c16.51,10.297,35.684,16.203,56.123,16.203c20.334,0,39.418-5.843,55.871-16.043v13.114l-55.997,33.599l-55.997-33.598
		L199.999,287.803L199.999,287.803z M178.425,306.79l63.274,37.965c-4.109,1.119-7.784,3.301-10.705,6.235l-47.591-17.847
		c-1.102-0.413-2.232-0.702-3.373-0.883l-10.132-12.683L178.425,306.79z M64.005,479.999v-69.436
		c0-17.414,5.433-36.679,15.999-51.778v137.214C71.182,495.998,64.005,488.821,64.005,479.999z M447.988,479.999
		c0,8.822-7.177,15.999-15.999,15.999V358.784c10.566,15.1,15.999,34.364,15.999,51.778V479.999z"/>
	<path style="fill:#2D2B29;" d="M255.996,416.002c-8.821,0-15.998,7.177-15.998,15.998c0,8.822,7.177,15.999,15.998,15.999
		c8.822,0,15.999-7.177,15.999-15.999C271.995,423.18,264.818,416.002,255.996,416.002z"/>
	<path style="fill:#2D2B29;" d="M255.996,456c-8.821,0-15.998,7.177-15.998,15.998c0,8.822,7.177,15.999,15.998,15.999
		c8.822,0,15.999-7.177,15.999-15.999C271.995,463.178,264.818,456,255.996,456z"/>
</g>
</svg>